<?xml version="1.0" encoding="UTF-8"?>
<!-- Created with Inkscape (http://www.inkscape.org/) -->
<svg id="svg8" width="188.88mm" height="164.42mm" version="1.1" viewBox="0 0 188.88 164.42" xmlns="http://www.w3.org/2000/svg" xmlns:cc="http://creativecommons.org/ns#" xmlns:dc="http://purl.org/dc/elements/1.1/" xmlns:rdf="http://www.w3.org/1999/02/22-rdf-syntax-ns#">
 <metadata id="metadata5">
  <rdf:RDF>
   <cc:Work rdf:about="">
    <dc:format>image/svg+xml</dc:format>
    <dc:type rdf:resource="http://purl.org/dc/dcmitype/StillImage"/>
    <dc:title/>
   </cc:Work>
  </rdf:RDF>
 </metadata>
 <g id="layer1" transform="translate(-4.276 -102.16)">
  <g id="g53" transform="matrix(.91458 0 0 .9193 18.782 11.453)" stroke-width=".26458">
   <path id="path18" d="m87.397 98.671 51.629 89.424h-51.629-51.629l25.815-44.712z"/>
   <path id="path18-3" d="m139.03 188.1 51.629 89.424h-51.629-51.629l25.815-44.712z"/>
   <path id="path18-3-6" d="m35.768 188.1 51.629 89.424h-51.629-51.629l25.815-44.712z"/>
  </g>
  <path id="path891" d="m78.877 198.8h13.665l-2.54 2.54 3.8608 11.735 4.2672-11.786-1.9304-2.4892h9.3472l-2.3876 2.4892 3.8608 11.786 4.3688-11.735-2.0828-2.54h9.2456l-3.2004 2.8448-10.363 28.55-6.35-18.948-6.6548 18.948-9.6012-28.245z"/>
 </g>
</svg>
